<mxfile host="65bd71144e">
    <diagram id="odmIuN08VZhW6Fv60gqp" name="Page-1">
        <mxGraphModel dx="832" dy="607" grid="1" gridSize="10" guides="1" tooltips="1" connect="1" arrows="1" fold="1" page="1" pageScale="1" pageWidth="850" pageHeight="1100" math="0" shadow="0">
            <root>
                <mxCell id="0"/>
                <mxCell id="1" parent="0"/>
                <mxCell id="v1wZuUfe_QAAUvK89jOB-92" value="Save/Load" style="swimlane;childLayout=stackLayout;resizeParent=1;resizeParentMax=0;horizontal=1;startSize=20;horizontalStack=0;html=1;strokeColor=rgb(240, 240, 240);fontFamily=Helvetica;fontSize=12;fontColor=rgb(240, 240, 240);fillColor=rgb(24, 20, 29);" parent="1" vertex="1">
                    <mxGeometry width="1690" height="880" as="geometry"/>
                </mxCell>
                <mxCell id="v1wZuUfe_QAAUvK89jOB-93" value="SaveLoadCloudManager" style="swimlane;startSize=20;horizontal=0;html=1;strokeColor=rgb(240, 240, 240);fontFamily=Helvetica;fontSize=12;fontColor=rgb(240, 240, 240);fillColor=rgb(24, 20, 29);" parent="v1wZuUfe_QAAUvK89jOB-92" vertex="1">
                    <mxGeometry y="20" width="1690" height="330" as="geometry"/>
                </mxCell>
                <mxCell id="21" value="CheckIdPlayer" style="rounded=1;whiteSpace=wrap;html=1;strokeColor=rgb(240, 240, 240);fontFamily=Helvetica;fontSize=12;fontColor=rgb(240, 240, 240);fillColor=rgb(24, 20, 29);" parent="v1wZuUfe_QAAUvK89jOB-93" vertex="1">
                    <mxGeometry x="120" y="90" width="120" height="60" as="geometry"/>
                </mxCell>
                <mxCell id="v1wZuUfe_QAAUvK89jOB-101" value="isHadId == true" style="rhombus;strokeColor=rgb(240, 240, 240);fontFamily=Helvetica;fontSize=12;fontColor=rgb(240, 240, 240);fillColor=rgb(24, 20, 29);html=1;" parent="v1wZuUfe_QAAUvK89jOB-93" vertex="1">
                    <mxGeometry x="620" y="105" width="160" height="30" as="geometry"/>
                </mxCell>
                <mxCell id="22" style="edgeStyle=none;html=1;fontFamily=Helvetica;fontSize=12;fontColor=rgb(240, 240, 240);" parent="v1wZuUfe_QAAUvK89jOB-93" source="21" target="v1wZuUfe_QAAUvK89jOB-101" edge="1">
                    <mxGeometry relative="1" as="geometry"/>
                </mxCell>
                <mxCell id="26" value="" style="edgeStyle=none;html=1;fontFamily=Helvetica;fontSize=12;fontColor=rgb(240, 240, 240);" parent="v1wZuUfe_QAAUvK89jOB-93" source="23" target="25" edge="1">
                    <mxGeometry relative="1" as="geometry"/>
                </mxCell>
                <mxCell id="23" value="FindDataPlayerByIdInCloud" style="rounded=1;whiteSpace=wrap;html=1;fillColor=rgb(24, 20, 29);strokeColor=rgb(240, 240, 240);fontFamily=Helvetica;fontSize=12;fontColor=rgb(240, 240, 240);" parent="v1wZuUfe_QAAUvK89jOB-93" vertex="1">
                    <mxGeometry x="920" y="95" width="180" height="60" as="geometry"/>
                </mxCell>
                <mxCell id="25" value="LoadDataPlayerFromCloud" style="whiteSpace=wrap;html=1;fillColor=rgb(24, 20, 29);rounded=1;" parent="v1wZuUfe_QAAUvK89jOB-93" vertex="1">
                    <mxGeometry x="1170" y="95" width="180" height="60" as="geometry"/>
                </mxCell>
                <mxCell id="42" style="edgeStyle=none;html=1;fontFamily=Helvetica;fontSize=12;fontColor=rgb(240, 240, 240);entryX=0.5;entryY=0;entryDx=0;entryDy=0;" parent="v1wZuUfe_QAAUvK89jOB-93" source="23" target="21" edge="1">
                    <mxGeometry relative="1" as="geometry">
                        <mxPoint x="730" y="80" as="targetPoint"/>
                        <Array as="points">
                            <mxPoint x="590" y="40"/>
                        </Array>
                    </mxGeometry>
                </mxCell>
                <mxCell id="47" value="SaveJsonToCloud" style="whiteSpace=wrap;html=1;fillColor=rgb(24, 20, 29);rounded=1;" parent="v1wZuUfe_QAAUvK89jOB-93" vertex="1">
                    <mxGeometry x="1450" y="95" width="120" height="60" as="geometry"/>
                </mxCell>
                <mxCell id="v1wZuUfe_QAAUvK89jOB-95" value="SaveLoadLocalManager" style="swimlane;startSize=20;horizontal=0;html=1;strokeColor=rgb(240, 240, 240);fontFamily=Helvetica;fontSize=12;fontColor=rgb(240, 240, 240);fillColor=rgb(24, 20, 29);" parent="v1wZuUfe_QAAUvK89jOB-92" vertex="1">
                    <mxGeometry y="350" width="1690" height="450" as="geometry"/>
                </mxCell>
                <mxCell id="13" style="edgeStyle=none;html=1;entryX=0.5;entryY=0;entryDx=0;entryDy=0;" parent="v1wZuUfe_QAAUvK89jOB-95" source="6" target="12" edge="1">
                    <mxGeometry relative="1" as="geometry"/>
                </mxCell>
                <mxCell id="6" value="FindDataPlayerFileByIdPlayer" style="html=1;align=center;verticalAlign=top;rounded=1;absoluteArcSize=1;arcSize=10;dashed=0;" parent="v1wZuUfe_QAAUvK89jOB-95" vertex="1">
                    <mxGeometry x="595" y="110" width="210" height="40" as="geometry"/>
                </mxCell>
                <mxCell id="12" value="idPlayer == idPlayer" style="rhombus;" parent="v1wZuUfe_QAAUvK89jOB-95" vertex="1">
                    <mxGeometry x="605" y="230" width="190" height="30" as="geometry"/>
                </mxCell>
                <mxCell id="20" value="true" style="edgeStyle=none;html=1;entryX=0;entryY=0.5;entryDx=0;entryDy=0;fontFamily=Helvetica;fontSize=12;fontColor=rgb(240, 240, 240);" parent="v1wZuUfe_QAAUvK89jOB-95" source="17" target="19" edge="1">
                    <mxGeometry relative="1" as="geometry"/>
                </mxCell>
                <mxCell id="37" value="false" style="edgeStyle=none;html=1;fontFamily=Helvetica;fontSize=12;fontColor=rgb(240, 240, 240);" parent="v1wZuUfe_QAAUvK89jOB-95" source="17" target="36" edge="1">
                    <mxGeometry relative="1" as="geometry"/>
                </mxCell>
                <mxCell id="17" value="version == version" style="rhombus;" parent="v1wZuUfe_QAAUvK89jOB-95" vertex="1">
                    <mxGeometry x="895" y="215" width="230" height="30" as="geometry"/>
                </mxCell>
                <mxCell id="46" value="" style="edgeStyle=none;html=1;fontFamily=Helvetica;fontSize=12;fontColor=rgb(240, 240, 240);" parent="v1wZuUfe_QAAUvK89jOB-95" source="19" target="45" edge="1">
                    <mxGeometry relative="1" as="geometry"/>
                </mxCell>
                <mxCell id="19" value="LoadFileFromJson" style="rounded=1;whiteSpace=wrap;html=1;strokeColor=rgb(240, 240, 240);fontFamily=Helvetica;fontSize=12;fontColor=rgb(240, 240, 240);fillColor=rgb(24, 20, 29);" parent="v1wZuUfe_QAAUvK89jOB-95" vertex="1">
                    <mxGeometry x="1250" y="200" width="120" height="60" as="geometry"/>
                </mxCell>
                <mxCell id="44" style="edgeStyle=none;html=1;fontFamily=Helvetica;fontSize=12;fontColor=rgb(240, 240, 240);" parent="v1wZuUfe_QAAUvK89jOB-95" source="36" target="19" edge="1">
                    <mxGeometry relative="1" as="geometry"/>
                </mxCell>
                <mxCell id="49" style="edgeStyle=none;html=1;entryX=0;entryY=0;entryDx=0;entryDy=0;fontFamily=Helvetica;fontSize=12;fontColor=rgb(240, 240, 240);" parent="v1wZuUfe_QAAUvK89jOB-95" source="36" target="45" edge="1">
                    <mxGeometry relative="1" as="geometry"/>
                </mxCell>
                <mxCell id="36" value="FindLastestVersion" style="rounded=1;whiteSpace=wrap;html=1;fillColor=rgb(24, 20, 29);" parent="v1wZuUfe_QAAUvK89jOB-95" vertex="1">
                    <mxGeometry x="1250" y="40" width="120" height="60" as="geometry"/>
                </mxCell>
                <mxCell id="16" value="CheckDataPlayerVersion" style="rounded=1;whiteSpace=wrap;html=1;" parent="v1wZuUfe_QAAUvK89jOB-95" vertex="1">
                    <mxGeometry x="890" y="-20" width="240" height="60" as="geometry"/>
                </mxCell>
                <mxCell id="18" style="edgeStyle=none;html=1;entryX=0.5;entryY=0;entryDx=0;entryDy=0;" parent="v1wZuUfe_QAAUvK89jOB-95" source="16" target="17" edge="1">
                    <mxGeometry relative="1" as="geometry"/>
                </mxCell>
                <mxCell id="15" value="true" style="edgeStyle=none;html=1;entryX=0;entryY=1;entryDx=0;entryDy=0;" parent="v1wZuUfe_QAAUvK89jOB-95" source="12" target="16" edge="1">
                    <mxGeometry relative="1" as="geometry">
                        <mxPoint x="990" as="targetPoint"/>
                        <Array as="points">
                            <mxPoint x="890" y="245"/>
                        </Array>
                    </mxGeometry>
                </mxCell>
                <mxCell id="62" style="edgeStyle=none;html=1;entryX=0.5;entryY=1;entryDx=0;entryDy=0;fontFamily=Helvetica;fontSize=12;fontColor=rgb(240, 240, 240);" parent="v1wZuUfe_QAAUvK89jOB-95" source="45" target="60" edge="1">
                    <mxGeometry relative="1" as="geometry"/>
                </mxCell>
                <mxCell id="45" value="SaveToJson" style="whiteSpace=wrap;html=1;fillColor=rgb(24, 20, 29);rounded=1;" parent="v1wZuUfe_QAAUvK89jOB-95" vertex="1">
                    <mxGeometry x="1450" y="200" width="120" height="60" as="geometry"/>
                </mxCell>
                <mxCell id="53" value="SaveNewPlayer" style="rounded=1;whiteSpace=wrap;html=1;fillColor=rgb(24, 20, 29);" parent="v1wZuUfe_QAAUvK89jOB-95" vertex="1">
                    <mxGeometry x="365" y="-20" width="120" height="60" as="geometry"/>
                </mxCell>
                <mxCell id="60" value="isTrailPlayer == true" style="rhombus;rounded=1;strokeColor=rgb(240, 240, 240);fontFamily=Helvetica;fontSize=12;fontColor=rgb(240, 240, 240);fillColor=rgb(24, 20, 29);html=1;" parent="v1wZuUfe_QAAUvK89jOB-95" vertex="1">
                    <mxGeometry x="1430" y="30" width="230" height="30" as="geometry"/>
                </mxCell>
                <mxCell id="64" style="edgeStyle=none;html=1;fontFamily=Helvetica;fontSize=12;fontColor=rgb(240, 240, 240);entryX=0.5;entryY=1;entryDx=0;entryDy=0;" parent="v1wZuUfe_QAAUvK89jOB-95" source="53" target="45" edge="1">
                    <mxGeometry relative="1" as="geometry">
                        <mxPoint x="1060" y="350" as="targetPoint"/>
                        <Array as="points">
                            <mxPoint x="425" y="350"/>
                            <mxPoint x="1510" y="350"/>
                        </Array>
                    </mxGeometry>
                </mxCell>
                <mxCell id="v1wZuUfe_QAAUvK89jOB-97" value="Player" style="swimlane;startSize=20;horizontal=0;html=1;strokeColor=rgb(240, 240, 240);fontFamily=Helvetica;fontSize=12;fontColor=rgb(240, 240, 240);fillColor=rgb(24, 20, 29);" parent="v1wZuUfe_QAAUvK89jOB-92" vertex="1">
                    <mxGeometry y="800" width="1690" height="80" as="geometry"/>
                </mxCell>
                <mxCell id="v1wZuUfe_QAAUvK89jOB-98" value="" style="ellipse;html=1;shape=startState;fillColor=#000000;strokeColor=#ff0000;fontFamily=Helvetica;fontSize=12;fontColor=rgb(240, 240, 240);" parent="v1wZuUfe_QAAUvK89jOB-97" vertex="1">
                    <mxGeometry x="50" y="25" width="30" height="30" as="geometry"/>
                </mxCell>
                <mxCell id="v1wZuUfe_QAAUvK89jOB-99" value="" style="edgeStyle=orthogonalEdgeStyle;html=1;verticalAlign=bottom;endArrow=open;endSize=8;strokeColor=#ff0000;fontFamily=Helvetica;fontSize=12;fontColor=rgb(240, 240, 240);entryX=0;entryY=0.5;entryDx=0;entryDy=0;" parent="v1wZuUfe_QAAUvK89jOB-97" source="v1wZuUfe_QAAUvK89jOB-98" target="v1wZuUfe_QAAUvK89jOB-100" edge="1">
                    <mxGeometry relative="1" as="geometry">
                        <mxPoint x="160" y="40" as="targetPoint"/>
                    </mxGeometry>
                </mxCell>
                <mxCell id="v1wZuUfe_QAAUvK89jOB-100" value="PlayGame" style="html=1;align=center;verticalAlign=top;rounded=1;absoluteArcSize=1;arcSize=10;dashed=0;strokeColor=rgb(240, 240, 240);fontFamily=Helvetica;fontSize=12;fontColor=rgb(240, 240, 240);fillColor=rgb(24, 20, 29);" parent="v1wZuUfe_QAAUvK89jOB-97" vertex="1">
                    <mxGeometry x="110" y="20" width="140" height="40" as="geometry"/>
                </mxCell>
                <mxCell id="28" value="" style="ellipse;html=1;shape=endState;fillColor=#000000;strokeColor=#ff0000;rounded=1;fontFamily=Helvetica;fontSize=12;fontColor=rgb(240, 240, 240);" parent="v1wZuUfe_QAAUvK89jOB-97" vertex="1">
                    <mxGeometry x="1620" y="25" width="30" height="30" as="geometry"/>
                </mxCell>
                <mxCell id="31" style="edgeStyle=none;html=1;entryX=0;entryY=0.5;entryDx=0;entryDy=0;fontFamily=Helvetica;fontSize=12;fontColor=rgb(240, 240, 240);" parent="v1wZuUfe_QAAUvK89jOB-97" source="29" target="28" edge="1">
                    <mxGeometry relative="1" as="geometry"/>
                </mxCell>
                <mxCell id="29" value="Exit" style="whiteSpace=wrap;html=1;fillColor=#000000;strokeColor=#FFFFFF;rounded=1;" parent="v1wZuUfe_QAAUvK89jOB-97" vertex="1">
                    <mxGeometry x="1430" y="10" width="120" height="60" as="geometry"/>
                </mxCell>
                <mxCell id="v1wZuUfe_QAAUvK89jOB-102" style="edgeStyle=none;html=1;fontFamily=Helvetica;fontSize=12;fontColor=rgb(240, 240, 240);" parent="v1wZuUfe_QAAUvK89jOB-92" source="v1wZuUfe_QAAUvK89jOB-100" target="21" edge="1">
                    <mxGeometry relative="1" as="geometry">
                        <mxPoint x="120" y="640" as="targetPoint"/>
                    </mxGeometry>
                </mxCell>
                <mxCell id="8" value="true" style="edgeStyle=none;html=1;entryX=0.5;entryY=0;entryDx=0;entryDy=0;" parent="v1wZuUfe_QAAUvK89jOB-92" source="v1wZuUfe_QAAUvK89jOB-101" target="6" edge="1">
                    <mxGeometry relative="1" as="geometry"/>
                </mxCell>
                <mxCell id="9" value="false" style="edgeStyle=none;html=1;entryX=0.5;entryY=0;entryDx=0;entryDy=0;" parent="v1wZuUfe_QAAUvK89jOB-92" source="v1wZuUfe_QAAUvK89jOB-101" target="53" edge="1">
                    <mxGeometry relative="1" as="geometry"/>
                </mxCell>
                <mxCell id="24" value="false" style="edgeStyle=none;html=1;entryX=0;entryY=0.5;entryDx=0;entryDy=0;fontFamily=Helvetica;fontSize=12;fontColor=rgb(240, 240, 240);" parent="v1wZuUfe_QAAUvK89jOB-92" source="12" target="23" edge="1">
                    <mxGeometry relative="1" as="geometry">
                        <Array as="points">
                            <mxPoint x="850" y="510"/>
                            <mxPoint x="850" y="145"/>
                        </Array>
                    </mxGeometry>
                </mxCell>
                <mxCell id="40" style="edgeStyle=none;html=1;fontFamily=Helvetica;fontSize=12;fontColor=rgb(240, 240, 240);" parent="v1wZuUfe_QAAUvK89jOB-92" source="23" target="16" edge="1">
                    <mxGeometry relative="1" as="geometry"/>
                </mxCell>
                <mxCell id="50" style="edgeStyle=none;html=1;entryX=0.25;entryY=0;entryDx=0;entryDy=0;fontFamily=Helvetica;fontSize=12;fontColor=rgb(240, 240, 240);" parent="v1wZuUfe_QAAUvK89jOB-92" source="25" target="45" edge="1">
                    <mxGeometry relative="1" as="geometry"/>
                </mxCell>
                <mxCell id="51" style="edgeStyle=none;html=1;fontFamily=Helvetica;fontSize=12;fontColor=rgb(240, 240, 240);" parent="v1wZuUfe_QAAUvK89jOB-92" source="47" target="29" edge="1">
                    <mxGeometry relative="1" as="geometry">
                        <mxPoint x="1680" y="145" as="targetPoint"/>
                        <Array as="points">
                            <mxPoint x="1660" y="145"/>
                            <mxPoint x="1670" y="460"/>
                            <mxPoint x="1660" y="630"/>
                            <mxPoint x="1620" y="740"/>
                        </Array>
                    </mxGeometry>
                </mxCell>
                <mxCell id="63" value="flase" style="edgeStyle=none;html=1;fontFamily=Helvetica;fontSize=12;fontColor=rgb(240, 240, 240);" parent="v1wZuUfe_QAAUvK89jOB-92" source="60" target="47" edge="1">
                    <mxGeometry relative="1" as="geometry"/>
                </mxCell>
                <mxCell id="65" style="edgeStyle=none;html=1;" edge="1" parent="v1wZuUfe_QAAUvK89jOB-92" source="60" target="29">
                    <mxGeometry relative="1" as="geometry">
                        <Array as="points">
                            <mxPoint x="1620" y="600"/>
                        </Array>
                    </mxGeometry>
                </mxCell>
            </root>
        </mxGraphModel>
    </diagram>
</mxfile>